<svg width="2485" height="1668" xmlns="http://www.w3.org/2000/svg" xmlns:xlink="http://www.w3.org/1999/xlink" xml:space="preserve" overflow="hidden"><defs><clipPath id="clip0"><rect x="2649" y="1082" width="150" height="149"/></clipPath><clipPath id="clip1"><rect x="2649" y="1082" width="150" height="149"/></clipPath><clipPath id="clip2"><rect x="2649" y="1082" width="150" height="149"/></clipPath><linearGradient x1="98.0253" y1="67.2266" x2="111.529" y2="80.6922" gradientUnits="userSpaceOnUse" spreadMethod="pad" id="fill3"><stop offset="0" stop-color="#86D633" stop-opacity="1"/><stop offset="1" stop-color="#5E9624" stop-opacity="1"/></linearGradient><linearGradient x1="50.8134" y1="70.629" x2="64.2156" y2="84.1134" gradientUnits="userSpaceOnUse" spreadMethod="pad" id="fill4"><stop offset="0" stop-color="#86D633" stop-opacity="1"/><stop offset="1" stop-color="#5E9624" stop-opacity="1"/></linearGradient><linearGradient x1="20.3911" y1="70.629" x2="33.7934" y2="84.1134" gradientUnits="userSpaceOnUse" spreadMethod="pad" id="fill5"><stop offset="0" stop-color="#86D633" stop-opacity="1"/><stop offset="1" stop-color="#5E9624" stop-opacity="1"/></linearGradient><linearGradient x1="37.8008" y1="8.61629" x2="4.59311" y2="106.72" gradientUnits="userSpaceOnUse" spreadMethod="pad" id="fill6"><stop offset="0" stop-color="#114A8B" stop-opacity="1"/><stop offset="1" stop-color="#0669BC" stop-opacity="1"/></linearGradient><linearGradient x1="64.3391" y1="71.2843" x2="56.6658" y2="73.879" gradientUnits="userSpaceOnUse" spreadMethod="pad" id="fill7"><stop offset="0" stop-color="#000000" stop-opacity="0.3"/><stop offset="0.0711768" stop-color="#000000" stop-opacity="0.2"/><stop offset="0.321031" stop-color="#000000" stop-opacity="0.1"/><stop offset="0.623053" stop-color="#000000" stop-opacity="0.05"/><stop offset="1" stop-color="#000000" stop-opacity="0"/></linearGradient><linearGradient x1="58.8534" y1="8.61573" x2="95.3046" y2="105.732" gradientUnits="userSpaceOnUse" spreadMethod="pad" id="fill8"><stop offset="0" stop-color="#3CCBF4" stop-opacity="1"/><stop offset="1" stop-color="#2892DF" stop-opacity="1"/></linearGradient><radialGradient cx="-6811.4" cy="6729.69" r="17" gradientUnits="userSpaceOnUse" spreadMethod="pad" id="fill9" gradientTransform="matrix(8.16666 0 0 -8.16666 55776.8 55109.5)"><stop offset="0" stop-color="#5EA0EF" stop-opacity="1"/><stop offset="0.18" stop-color="#5EA0EF" stop-opacity="1"/><stop offset="1" stop-color="#0078D4" stop-opacity="1"/></radialGradient></defs><g transform="translate(-957 -151)"><g><rect x="959" y="154" width="2482" height="1664" fill="#FFFFFF" fill-opacity="1"/><rect x="1098" y="839" width="784" height="805" stroke="#000000" stroke-width="5.72917" stroke-linecap="butt" stroke-linejoin="miter" stroke-miterlimit="8" stroke-opacity="1" fill="none"/><text fill="#000000" fill-opacity="1" font-family="Segoe UI Semilight,Segoe UI Semilight_MSFontService,sans-serif" font-style="normal" font-variant="normal" font-weight="300" font-stretch="normal" font-size="55" text-anchor="start" direction="ltr" writing-mode="lr-tb" unicode-bidi="normal" text-decoration="none" transform="matrix(1 0 0 1 1279.38 926)">AWS Cloud</text><g><g><g><path d="M0 0 137 0 137 137 0 137Z" fill="#242F3E" fill-rule="evenodd" fill-opacity="1" transform="matrix(1.0073 0 0 1 1108 847)"/><path d="M111.991 81.8603C113.228 83.4667 110.621 90.0769 109.454 93.0361 109.097 93.9335 109.858 94.2862 110.652 93.6115 115.834 89.2138 117.177 79.9971 116.112 78.6682 115.06 77.3462 106.005 76.2125 100.483 80.1478 99.6306 80.7541 99.7779 81.5898 100.72 81.4802 103.83 81.0966 110.758 80.2574 111.991 81.8603L111.991 81.8603ZM109.108 88.7412C110.882 87.4465 109.361 85.5182 107.553 86.2752 95.5206 91.2894 82.4577 93.7177 70.5626 93.7177 52.9478 93.7177 35.8776 88.9604 22.0783 81.0623 20.8727 80.3705 19.9787 81.5932 20.9857 82.4803 33.7712 93.8376 50.677 100.664 69.4392 100.664 82.831 100.664 98.3839 96.5262 109.108 88.7412ZM101.764 70.8798C100.059 70.8798 98.3908 70.6982 96.7673 70.3283 95.137 69.955 93.8903 69.5337 93.0238 69.0508 92.4929 68.7631 92.1607 68.4617 92.0271 68.1672 91.897 67.8658 91.8285 67.5712 91.8285 67.2767L91.8285 65.6703C91.8285 65.0059 92.0785 64.6668 92.5683 64.6668 92.7566 64.6668 92.9553 64.7113 93.1608 64.7798 93.3697 64.8586 93.6437 64.9682 93.9862 65.1155 95.0822 65.5984 96.2707 65.9649 97.5619 66.2252 98.8497 66.4821 100.134 66.6122 101.418 66.6122 103.463 66.6122 105.042 66.2629 106.159 65.5573 107.279 64.8586 107.834 63.8619 107.834 62.5673 107.834 61.6768 107.542 60.9404 106.953 60.3445 106.368 59.7485 105.278 59.2039 103.693 58.6833L98.9833 57.2414C96.5961 56.5016 94.8664 55.4296 93.7876 54.0288 92.7087 52.6176 92.171 51.0867 92.171 49.4153 92.171 48.0898 92.4621 46.9184 93.0546 45.8978 93.6369 44.8806 94.4075 44.014 95.3699 43.2914 96.346 42.5721 97.4729 42.031 98.7572 41.6542 100.038 41.2877 101.401 41.0994 102.84 41.0994 103.559 41.0994 104.289 41.1473 105.032 41.2398 105.768 41.3288 106.467 41.4521 107.128 41.5994 107.789 41.7535 108.405 41.9179 108.971 42.0995 109.539 42.2878 109.991 42.4728 110.337 42.6543 110.786 42.9112 111.104 43.1715 111.3 43.4318 111.488 43.6887 111.584 44.038 111.584 44.4867L111.584 45.98C111.584 46.6479 111.337 46.9767 110.841 46.9767 110.577 46.9767 110.166 46.8534 109.594 46.5931 107.744 45.7745 105.655 45.3738 103.357 45.3738 101.501 45.3738 100.059 45.6683 99.0381 46.2574 98.014 46.8534 97.5037 47.7952 97.5037 49.0899 97.5037 49.9735 97.8257 50.7236 98.473 51.3333 99.1169 51.9429 100.305 52.5252 102.049 53.0835L106.645 54.5288C108.991 55.2618 110.666 56.2824 111.666 57.5702 112.673 58.8683 113.177 60.3445 113.177 62.0056 113.177 63.379 112.892 64.6086 112.32 65.6977 111.752 66.7903 110.967 67.7185 109.96 68.496 108.96 69.2734 107.762 69.8625 106.361 70.2701 104.957 70.6811 103.426 70.8798 101.764 70.8798ZM60.0992 70.0441C59.5307 70.0441 59.1163 69.9516 58.8491 69.7461 58.582 69.5372 58.3559 69.1262 58.1675 68.496L50.5572 43.9832C50.3756 43.353 50.2763 42.9317 50.2763 42.7125 50.2763 42.1954 50.5435 41.9351 51.0743 41.9351L54.2493 41.9351C54.8555 41.9351 55.2802 42.0378 55.5303 42.2433 55.7735 42.442 55.9892 42.853 56.1776 43.49L61.6268 64.451 66.6855 43.49C66.8362 42.853 67.0417 42.442 67.3054 42.2433 67.5692 42.0378 68.0041 41.9351 68.6069 41.9351L71.2271 41.9351C71.8264 41.9351 72.2614 42.0378 72.5286 42.2433 72.7923 42.442 73.0012 42.853 73.1519 43.49L78.2654 64.7285 83.8825 43.49C84.0708 42.853 84.2866 42.442 84.5332 42.2433 84.7832 42.0378 85.2045 41.9351 85.8107 41.9351L88.8179 41.9351C89.3522 41.9351 89.6159 42.1954 89.6159 42.7125 89.6159 42.853 89.5919 43.0242 89.5611 43.2057 89.5166 43.3975 89.4481 43.6544 89.3282 43.9832L81.4987 68.496C81.3103 69.1262 81.0808 69.5372 80.8137 69.7461 80.5499 69.9516 80.1321 70.0441 79.5669 70.0441L76.7824 70.0441C76.1796 70.0441 75.7447 69.9413 75.4809 69.7221 75.2172 69.4995 75.0083 69.0679 74.8576 68.4446L69.8023 48.0316 64.812 68.4446C64.6613 69.0679 64.449 69.4995 64.1853 69.7221 63.9181 69.9413 63.4866 70.0441 62.8803 70.0441L60.0992 70.0441ZM34.0418 66.6122C35.107 66.6122 36.2201 66.417 37.3949 66.03 38.5662 65.6395 39.5869 64.9682 40.4568 64.0024 40.9911 63.4133 41.3542 62.7385 41.5665 61.9782 41.772 61.2247 41.8714 60.3102 41.8714 59.2348L41.8714 57.9059C40.9329 57.6832 39.9397 57.5086 38.895 57.3784 37.8538 57.2517 36.8435 57.1832 35.8571 57.1832 33.7027 57.1832 32.0895 57.6079 31.0346 58.4607 29.9763 59.3101 29.442 60.526 29.442 62.1255 29.442 63.6016 29.8427 64.7148 30.6373 65.4751 31.4319 66.2355 32.569 66.6122 34.0418 66.6122ZM47.2144 61.7898C47.2144 62.9714 47.3342 63.9099 47.5808 64.6154 47.8309 65.321 48.1802 66.0813 48.6323 66.8896 48.783 67.1499 48.8584 67.3897 48.8584 67.6055 48.8584 67.9445 48.6494 68.2596 48.235 68.5508L46.1903 69.8865C45.8889 70.068 45.6046 70.1639 45.3409 70.1639 44.995 70.1639 44.6764 70.0167 44.375 69.7221 43.9161 69.2734 43.5325 68.7871 43.214 68.2494 42.8852 67.7151 42.5564 67.0883 42.2173 66.3862 39.6794 69.3077 36.5044 70.7702 32.6821 70.7702 29.9558 70.7702 27.798 70.0167 26.2054 68.496 24.6196 66.9821 23.825 64.9477 23.825 62.3995 23.825 59.704 24.808 57.5257 26.7808 55.8817 28.7433 54.2377 31.3977 53.4123 34.7234 53.4123 35.8228 53.4123 36.9668 53.4979 38.1587 53.6623 39.3471 53.8267 40.5904 54.063 41.8714 54.3576L41.8714 52.032C41.8714 49.6276 41.3679 47.9357 40.3438 46.9527 39.3232 45.9731 37.5661 45.4868 35.0693 45.4868 33.9288 45.4868 32.7643 45.6204 31.5724 45.8978 30.3839 46.1752 29.216 46.5348 28.0823 46.9767 27.5514 47.1993 27.1712 47.3397 26.9486 47.3945 26.7226 47.4493 26.5513 47.4767 26.4383 47.4767 25.9862 47.4767 25.7533 47.1479 25.7533 46.4766L25.7533 44.9285C25.7533 44.4079 25.8355 44.038 25.9862 43.8222 26.1369 43.5962 26.4383 43.3736 26.8938 43.1544 28.0275 42.5961 29.3906 42.1166 30.9764 41.7124 32.569 41.3049 34.2507 41.0994 36.0317 41.0994 39.8883 41.0994 42.7173 41.9659 44.5155 43.6784 46.3102 45.3977 47.2144 47.9939 47.2144 51.4703L47.2144 61.7898Z" fill="#FFFFFF" fill-rule="evenodd" fill-opacity="1" transform="matrix(1.0073 0 0 1 1108 847)"/></g></g></g><rect x="1235" y="1094" width="564" height="411" stroke="#8C4FFF" stroke-width="5.72917" stroke-linecap="butt" stroke-linejoin="miter" stroke-miterlimit="8" stroke-opacity="1" fill="none"/><text fill="#000000" fill-opacity="1" font-family="Segoe UI Semilight,Segoe UI Semilight_MSFontService,sans-serif" font-style="normal" font-variant="normal" font-weight="300" font-stretch="normal" font-size="55" text-anchor="start" direction="ltr" writing-mode="lr-tb" unicode-bidi="normal" text-decoration="none" transform="matrix(1 0 0 1 1416.88 1181)">Virtual private </text><text fill="#000000" fill-opacity="1" font-family="Segoe UI Semilight,Segoe UI Semilight_MSFontService,sans-serif" font-style="normal" font-variant="normal" font-weight="300" font-stretch="normal" font-size="55" text-anchor="start" direction="ltr" writing-mode="lr-tb" unicode-bidi="normal" text-decoration="none" transform="matrix(1 0 0 1 1416.88 1247)">cloud (VPC)</text><g><g><g><path d="M0 0 137 0 137 137 0 137Z" fill="#8C4FFF" fill-rule="evenodd" fill-opacity="1" transform="matrix(1 0 0 1.0073 1241 1100)"/><path d="M106.075 72.0258 95.9916 67.7 95.9916 103.625C104.708 102.419 106.034 93.4594 106.088 93.0519L106.075 72.0258ZM92.5666 103.673 92.5666 67.676 82.1717 72.0361 82.1717 93.2745C82.2162 93.4594 83.6958 102.751 92.5666 103.673ZM93.6146 63.5249C94.0393 63.3434 94.5257 63.3468 94.9538 63.5283L108.462 69.3235C109.092 69.594 109.5 70.2105 109.5 70.8955L109.5 93.2745C108.873 98.2305 104.852 107.19 93.9948 107.19 83.4629 107.19 79.4248 98.2442 78.7604 93.5108L78.7467 70.8955C78.7467 70.2071 79.1611 69.5838 79.7947 69.3166L93.6146 63.5249ZM112.966 65.7066 94.2619 57.4661 75.3217 65.4361 75.3217 89.8495C75.3182 89.9933 75.1367 99.6724 80.9969 105.683 84.1376 108.906 88.5113 110.543 93.9948 110.543 99.4816 110.543 103.883 108.903 107.075 105.673 113.017 99.6519 112.966 89.9694 112.966 89.8735L112.966 65.7066ZM109.531 108.06C105.671 111.978 100.441 113.968 93.9948 113.968 87.5421 113.968 82.3361 111.978 78.524 108.053 71.6569 100.988 71.883 90.2537 71.8967 89.8016L71.8967 64.299C71.8967 63.6105 72.3077 62.9872 72.9413 62.72L93.6112 54.0205C94.0462 53.8424 94.5394 53.839 94.9675 54.0342L115.367 63.0249C115.99 63.2989 116.391 63.9119 116.391 64.5901L116.391 89.8495C116.398 90.2776 116.483 100.998 109.531 108.06ZM37.6466 83.0098 65.0466 83.0098 65.0466 86.4348 37.6466 86.4348C28.0189 86.4348 21.1689 79.53 20.5935 69.255 20.5524 68.8748 20.549 68.4158 20.549 67.9569 20.549 59.3635 25.0632 53.4931 33.6222 50.9038 33.5572 50.1263 33.5126 49.3077 33.5126 48.6878 33.5126 38.7005 38.9139 30.0385 47.2709 26.6135 58.5665 21.9966 71.3898 23.5516 78.459 30.3947 81.0106 32.8744 82.9937 35.6762 84.487 38.906 86.5728 37.3647 89.282 36.6421 92.5323 36.803 98.6288 37.1113 103.318 42.6701 104.29 50.527 109.421 50.9517 112.801 53.5513 114.6 58.4319L111.39 59.617C109.924 55.6543 107.253 53.887 102.722 53.887 101.814 53.887 101.064 53.1814 101.009 52.2772 100.537 44.2695 96.1936 40.4164 92.3576 40.2246 89.121 40.0431 86.7235 40.9747 85.237 42.9338 84.8569 43.4304 84.2609 43.677 83.617 43.5948 83.0005 43.4989 82.4799 43.0776 82.2641 42.4885 80.8804 38.7108 78.8563 35.5598 76.0752 32.8504 69.9513 26.9252 58.6419 25.6614 48.569 29.7851 41.5032 32.6792 36.9376 40.0979 36.9376 48.6878 36.9376 49.6228 37.0575 51.0716 37.1637 51.9724 37.2664 52.8321 36.715 53.6301 35.8759 53.8356 27.9778 55.7947 23.974 60.5452 23.974 67.9569 23.974 68.3028 23.9706 68.6453 24.0048 68.9912 24.4878 77.5366 29.8376 83.0098 37.6466 83.0098Z" fill="#FFFFFF" fill-rule="evenodd" fill-opacity="1" transform="matrix(1 0 0 1.0073 1241 1100)"/></g></g></g><g clip-path="url(#clip0)"><g clip-path="url(#clip1)"><g clip-path="url(#clip2)"><path d="M114.289 73.9179C114.289 79.1854 110.019 83.4556 104.751 83.4556 99.4836 83.4556 95.2134 79.1854 95.2134 73.9179 95.2134 68.6503 99.4837 64.3801 104.751 64.3801 110.019 64.3801 114.289 68.6503 114.289 73.9179Z" fill="url(#fill3)" fill-rule="nonzero" transform="matrix(1 0 0 1.00675 2650 1082)"/><path d="M83.8668 74.0001C83.8668 79.2677 79.5965 83.5379 74.329 83.5379 69.0614 83.5379 64.7912 79.2676 64.7912 74.0001 64.7912 68.7325 69.0614 64.4623 74.329 64.4623 79.5965 64.4623 83.8668 68.7325 83.8668 74.0001Z" fill="url(#fill4)" fill-rule="nonzero" transform="matrix(1 0 0 1.00675 2650 1082)"/><path d="M53.4445 74.0001C53.4445 79.2677 49.1743 83.5379 43.9067 83.5379 38.6391 83.5379 34.3689 79.2676 34.3689 74.0001 34.3689 68.7325 38.6391 64.4623 43.9067 64.4623 49.1743 64.4623 53.4445 68.7325 53.4445 74.0001Z" fill="url(#fill5)" fill-rule="nonzero" transform="matrix(1 0 0 1.00675 2650 1082)"/><path d="M21.5319 60.0584 29.2867 60.0584C30.6536 60.0584 31.7617 61.1664 31.7617 62.5333L31.7617 119.787C31.7617 122.521 29.5455 124.737 26.8118 124.737L19.057 124.737 19.057 62.5333C19.057 61.1664 20.165 60.0584 21.5319 60.0584Z" fill="#50E6FF" fill-rule="nonzero" fill-opacity="1" transform="matrix(-0.703761 0.710495 -0.705728 -0.708515 2758.37 1222.14)"/><path d="M21.1198 24.0073 28.8748 24.0073C30.2417 24.0073 31.3498 25.1154 31.3498 26.4823L31.3498 87.7793 23.5948 87.7793C20.861 87.7793 18.6449 85.5634 18.6449 82.8294L18.6449 26.4823C18.6449 25.1154 19.7529 24.0073 21.1198 24.0073Z" fill="#1490DF" fill-rule="nonzero" fill-opacity="1" transform="matrix(0.705715 0.708501 -0.703748 0.710482 2696.54 1080.68)"/><path d="M116.734 60.0584 124.489 60.0584C127.223 60.0584 129.439 62.2746 129.439 65.0083L129.439 122.262C129.439 123.629 128.331 124.737 126.964 124.737L119.209 124.737C117.842 124.737 116.734 123.629 116.734 122.262L116.734 60.0584Z" fill="#50E6FF" fill-rule="nonzero" fill-opacity="1" transform="matrix(0.703761 0.710495 -0.705728 0.708515 2751.3 1021.74)"/><path d="M122.182 24.0073 129.936 24.0073 129.936 85.3043C129.936 86.6714 128.829 87.7793 127.462 87.7793L119.624 87.7793C118.257 87.7793 117.149 86.6714 117.149 85.3043L117.149 28.9573C117.149 26.2235 119.365 24.0073 122.099 24.0073Z" fill="#1490DF" fill-rule="nonzero" fill-opacity="1" transform="matrix(-0.705715 0.708501 -0.703748 -0.710482 2899.63 1090.2)"/></g></g></g><g><g><g><path d="M33.1951 8.555C33.8935 6.48536 35.8344 5.09201 38.0187 5.09201L70 5.09201 36.8053 103.448C36.1068 105.517 34.1659 106.91 31.9817 106.91L7.09135 106.91C3.60849 106.91 1.15401 103.491 2.26776 100.192L33.1951 8.555Z" fill="url(#fill6)" fill-rule="nonzero" transform="matrix(1 0 0 1.00893 2573 863)"/><path d="M84.3217 71.2731 33.919 71.2731C31.8012 71.2731 30.7787 73.8671 32.3269 75.312L64.7143 105.54C65.6569 106.42 66.8983 106.91 68.1875 106.91L96.7264 106.91 84.3217 71.2731Z" fill="#0078D4" fill-rule="nonzero" fill-opacity="1" transform="matrix(1 0 0 1.00893 2573 863)"/><path d="M38.0187 5.09201C35.8344 5.09201 33.8935 6.48536 33.1951 8.555L2.26776 100.192C1.15401 103.491 3.60849 106.91 7.09135 106.91L31.9817 106.91C34.1659 106.91 36.1068 105.517 36.8053 103.448L42.9537 85.2296 64.7143 105.54C65.6569 106.42 66.8983 106.909 68.1881 106.909L96.727 106.909 84.3217 71.2725 47.6642 71.2725 70 5.09201 38.0187 5.09201Z" fill="url(#fill7)" fill-rule="nonzero" transform="matrix(1 0 0 1.00893 2573 863)"/><path d="M78.8045 8.55419C78.1064 6.48462 76.1656 5.09126 73.981 5.09126L38.1814 5.09126 38.3447 5.09126C40.529 5.09126 42.4699 6.48462 43.1683 8.55419L74.0955 100.191C75.2093 103.491 72.7546 106.91 69.272 106.91L68.727 106.91 104.909 106.91C108.391 106.91 110.846 103.491 109.732 100.191L78.8045 8.55419Z" fill="url(#fill8)" fill-rule="nonzero" transform="matrix(1 0 0 1.00893 2573 863)"/></g></g></g><rect x="2532" y="840" width="784" height="805" stroke="#00B0F0" stroke-width="5.72917" stroke-linecap="butt" stroke-linejoin="miter" stroke-miterlimit="8" stroke-opacity="1" fill="none"/><text fill="#000000" fill-opacity="1" font-family="Segoe UI Semilight,Segoe UI Semilight_MSFontService,sans-serif" font-style="normal" font-variant="normal" font-weight="300" font-stretch="normal" font-size="55" text-anchor="start" direction="ltr" writing-mode="lr-tb" unicode-bidi="normal" text-decoration="none" transform="matrix(1 0 0 1 2713.35 927)">Azure Cloud</text><rect x="2623" y="1081" width="599" height="411" stroke="#8C4FFF" stroke-width="5.72917" stroke-linecap="butt" stroke-linejoin="miter" stroke-miterlimit="8" stroke-opacity="1" fill="none"/><text fill="#000000" fill-opacity="1" font-family="Segoe UI Semilight,Segoe UI Semilight_MSFontService,sans-serif" font-style="normal" font-variant="normal" font-weight="300" font-stretch="normal" font-size="55" text-anchor="start" direction="ltr" writing-mode="lr-tb" unicode-bidi="normal" text-decoration="none" transform="matrix(1 0 0 1 2833.91 1168)">Virtual </text><text fill="#000000" fill-opacity="1" font-family="Segoe UI Semilight,Segoe UI Semilight_MSFontService,sans-serif" font-style="normal" font-variant="normal" font-weight="300" font-stretch="normal" font-size="55" text-anchor="start" direction="ltr" writing-mode="lr-tb" unicode-bidi="normal" text-decoration="none" transform="matrix(1 0 0 1 2804.12 1234)">Network (</text><text fill="#000000" fill-opacity="1" font-family="Segoe UI Semilight,Segoe UI Semilight_MSFontService,sans-serif" font-style="normal" font-variant="normal" font-weight="300" font-stretch="normal" font-size="55" text-anchor="start" direction="ltr" writing-mode="lr-tb" unicode-bidi="normal" text-decoration="none" transform="matrix(1 0 0 1 3035.42 1234)">vNet</text><text fill="#000000" fill-opacity="1" font-family="Segoe UI Semilight,Segoe UI Semilight_MSFontService,sans-serif" font-style="normal" font-variant="normal" font-weight="300" font-stretch="normal" font-size="55" text-anchor="start" direction="ltr" writing-mode="lr-tb" unicode-bidi="normal" text-decoration="none" transform="matrix(1 0 0 1 3147.13 1234)">)</text><g><g><g><path d="M232.097 256.76C171.477 303.757 84.2375 292.716 37.24 232.097-9.7576 171.477 1.28456 84.2375 61.9033 37.24L63.3733 36.26C124.818-9.60548 211.811 3.02426 257.676 64.4693 302.769 124.881 291.416 210.238 232.097 256.76" fill="url(#fill9)" fill-rule="nonzero" transform="matrix(1 0 0 1 2053 298)"/><path d="M147 21.3967C77.6312 21.3967 21.3967 77.6312 21.3967 147 21.3967 216.369 77.6312 272.603 147 272.603 216.369 272.603 272.603 216.369 272.603 147 272.513 77.6686 216.332 21.4867 147 21.3967ZM231.117 63.7C220.165 69.8617 208.315 74.2708 196 76.7666 191.739 61.0176 184.834 46.106 175.583 32.6667 196.594 37.7127 215.807 48.45 231.117 63.7ZM147 28.42C152.965 28.4159 158.92 28.9075 164.803 29.89 176.749 44.1114 185.297 60.8694 189.793 78.89 160.366 84.2818 130.204 84.2818 100.777 78.89 105.262 61.2247 113.694 44.8062 125.44 30.87 132.538 29.4033 139.754 28.5833 147 28.42ZM114.333 32.6667C104.97 45.9662 97.9542 60.7714 93.59 76.44 82.5576 74.2003 72.0355 69.9362 62.5566 63.8633 76.8722 49.2184 94.6961 38.479 114.333 32.6667ZM60.76 228.667C69.6017 222.77 79.459 218.561 89.8333 216.253 93.8836 232.482 101.407 247.639 111.883 260.68 92.3645 254.601 74.7519 243.572 60.76 228.667ZM165.457 264.6C159.34 265.418 153.168 265.747 147 265.58 139.095 265.6 131.211 264.778 123.48 263.13 109.809 249.802 100.328 232.771 96.2033 214.13 127.891 207.675 160.555 207.675 192.243 214.13 188.028 232.809 178.43 249.844 164.64 263.13ZM177.38 261.987C188.18 248.595 195.877 232.975 199.92 216.253 211.474 218.966 222.507 223.544 232.587 229.81 217.464 245.235 198.35 256.149 177.38 261.333ZM201.553 209.393C202.86 203.513 204.003 197.47 204.82 191.1L197.307 192.897C196.49 197.96 195.673 203.023 194.53 207.76 161.711 201.063 127.879 201.063 95.06 207.76 93.9166 203.35 93.1 198.613 92.2833 193.713 92.2041 193.227 92.2041 192.73 92.2833 192.243L84.77 190.12C84.6795 191.644 84.6795 193.169 84.77 194.693 84.77 199.92 86.5666 204.82 87.5466 209.557 75.892 212.123 64.8154 216.83 54.88 223.44 17.6542 178.78 18.416 113.684 56.6767 69.9066 67.0645 76.5933 78.5731 81.3517 90.65 83.9533 89.5066 87.8733 88.5266 92.12 87.71 96.3666 86.8933 100.613 87.71 100.45 86.4033 102.41L94.08 100.613 94.08 97.8366C95.06 93.59 96.04 89.5066 97.1833 85.5866 113.61 88.6003 130.304 89.914 147 89.5066 162.235 89.5058 177.435 88.0842 192.407 85.26 193.55 89.67 194.693 94.4066 195.673 99.1433L203.187 100.94C201.989 95.06 200.683 89.6156 199.267 84.6066 212.505 81.7008 225.189 76.682 236.833 69.7433 275.841 113.91 276.259 180.09 237.813 224.747 226.697 217.477 214.44 212.123 201.553 208.903Z" fill="#5EA0EF" fill-rule="nonzero" fill-opacity="1" transform="matrix(1 0 0 1 2053 298)"/><path d="M60.27 114.333C66.5449 113.434 72.8777 112.997 79.2166 113.027 89.2657 112.223 99.2459 115.258 107.147 121.52 113.485 127.817 116.967 136.434 116.783 145.367 117.289 155.286 113.685 164.975 106.82 172.153 98.3779 179.306 87.4779 182.879 76.44 182.117 70.9846 182.143 65.5321 181.87 60.1066 181.3ZM69.2533 175.257C72.2443 175.462 75.2457 175.462 78.2366 175.257 92.7571 176.903 105.862 166.464 107.508 151.945 107.743 149.867 107.732 147.768 107.473 145.693 108.697 132.218 98.7649 120.302 85.2894 119.078 83.3746 118.904 81.446 118.956 79.5433 119.233 76.1218 118.892 72.6748 118.892 69.2533 119.233Z" fill="#FFFFFF" fill-rule="nonzero" fill-opacity="1" transform="matrix(1 0 0 1 2053 298)"/><path d="M128.38 181.463 128.38 112.7 138.017 112.7 160.067 147C164.681 154.185 168.826 161.659 172.48 169.377 171.663 160.23 171.5 151.9 171.5 141.12L171.5 112.7 179.667 112.7 179.667 181.463 170.683 181.463 149.123 147C144.387 139.323 139.813 130.667 136.22 124.133 136.22 132.79 136.22 140.467 136.22 152.553L136.22 181.953Z" fill="#FFFFFF" fill-rule="nonzero" fill-opacity="1" transform="matrix(1 0 0 1 2053 298)"/><path d="M194.203 170.683C199.165 173.563 204.799 175.083 210.537 175.093 219.683 175.093 224.91 170.357 224.91 163.333 224.91 156.31 221.317 153.207 212.007 149.777 202.697 146.347 193.713 139.977 193.713 130.177 194.349 119.19 203.771 110.799 214.759 111.435 215.203 111.46 215.647 111.501 216.09 111.557 221.343 111.408 226.553 112.529 231.28 114.823L228.667 122.173C224.663 119.983 220.163 118.858 215.6 118.907 206.127 118.907 202.533 124.46 202.533 129.197 202.533 133.933 206.78 138.833 216.253 142.427 225.727 146.02 233.893 152.553 233.893 162.68 233.893 172.807 226.053 182.443 209.72 182.443 203.611 182.512 197.589 180.991 192.243 178.033Z" fill="#FFFFFF" fill-rule="nonzero" fill-opacity="1" transform="matrix(1 0 0 1 2053 298)"/></g></g></g><path d="M1905.42 1239.07 2509.35 1239.28 2509.35 1246.16 1905.42 1245.95ZM1910 1256.26 1882.5 1242.5 1910 1228.76ZM2504.77 1228.97 2532.27 1242.73 2504.76 1256.47Z" fill="#156082" fill-rule="nonzero" fill-opacity="1"/><text fill="#000000" fill-opacity="1" font-family="Segoe UI,Segoe UI_MSFontService,sans-serif" font-style="normal" font-variant="normal" font-weight="400" font-stretch="normal" font-size="55" text-anchor="start" direction="ltr" writing-mode="lr-tb" unicode-bidi="normal" text-decoration="none" transform="matrix(1 0 0 1 1988.77 1162)">Site</text><text fill="#000000" fill-opacity="1" font-family="Segoe UI,Segoe UI_MSFontService,sans-serif" font-style="normal" font-variant="normal" font-weight="400" font-stretch="normal" font-size="55" text-anchor="start" direction="ltr" writing-mode="lr-tb" unicode-bidi="normal" text-decoration="none" transform="matrix(1 0 0 1 2078.29 1162)">-</text><text fill="#000000" fill-opacity="1" font-family="Segoe UI,Segoe UI_MSFontService,sans-serif" font-style="normal" font-variant="normal" font-weight="400" font-stretch="normal" font-size="55" text-anchor="start" direction="ltr" writing-mode="lr-tb" unicode-bidi="normal" text-decoration="none" transform="matrix(1 0 0 1 2100.06 1162)">to</text><text fill="#000000" fill-opacity="1" font-family="Segoe UI,Segoe UI_MSFontService,sans-serif" font-style="normal" font-variant="normal" font-weight="400" font-stretch="normal" font-size="55" text-anchor="start" direction="ltr" writing-mode="lr-tb" unicode-bidi="normal" text-decoration="none" transform="matrix(1 0 0 1 2150.61 1162)">-</text><text fill="#000000" fill-opacity="1" font-family="Segoe UI,Segoe UI_MSFontService,sans-serif" font-style="normal" font-variant="normal" font-weight="400" font-stretch="normal" font-size="55" text-anchor="start" direction="ltr" writing-mode="lr-tb" unicode-bidi="normal" text-decoration="none" transform="matrix(1 0 0 1 2172.38 1162)">Site </text><text fill="#000000" fill-opacity="1" font-family="Segoe UI,Segoe UI_MSFontService,sans-serif" font-style="normal" font-variant="normal" font-weight="400" font-stretch="normal" font-size="55" text-anchor="start" direction="ltr" writing-mode="lr-tb" unicode-bidi="normal" text-decoration="none" transform="matrix(1 0 0 1 2276.79 1162)">VPN</text><text fill="#000000" fill-opacity="1" font-family="Segoe UI,Segoe UI_MSFontService,sans-serif" font-style="normal" font-variant="normal" font-weight="400" font-stretch="normal" font-size="55" text-anchor="start" direction="ltr" writing-mode="lr-tb" unicode-bidi="normal" text-decoration="none" transform="matrix(1 0 0 1 1980.75 1360)">Direct</text><text fill="#000000" fill-opacity="1" font-family="Segoe UI,Segoe UI_MSFontService,sans-serif" font-style="normal" font-variant="normal" font-weight="400" font-stretch="normal" font-size="55" text-anchor="start" direction="ltr" writing-mode="lr-tb" unicode-bidi="normal" text-decoration="none" transform="matrix(1 0 0 1 2138.15 1360)">Connect</text><text fill="#000000" fill-opacity="1" font-family="Segoe UI,Segoe UI_MSFontService,sans-serif" font-style="normal" font-variant="normal" font-weight="400" font-stretch="normal" font-size="55" text-anchor="start" direction="ltr" writing-mode="lr-tb" unicode-bidi="normal" text-decoration="none" transform="matrix(1 0 0 1 2353.56 1360)">+</text><text fill="#000000" fill-opacity="1" font-family="Segoe UI,Segoe UI_MSFontService,sans-serif" font-style="normal" font-variant="normal" font-weight="400" font-stretch="normal" font-size="55" text-anchor="start" direction="ltr" writing-mode="lr-tb" unicode-bidi="normal" text-decoration="none" transform="matrix(1 0 0 1 2018.43 1426)">Express</text><text fill="#000000" fill-opacity="1" font-family="Segoe UI,Segoe UI_MSFontService,sans-serif" font-style="normal" font-variant="normal" font-weight="400" font-stretch="normal" font-size="55" text-anchor="start" direction="ltr" writing-mode="lr-tb" unicode-bidi="normal" text-decoration="none" transform="matrix(1 0 0 1 2212.49 1426)">Rout</text><text fill="#000000" fill-opacity="1" font-family="Segoe UI,Segoe UI_MSFontService,sans-serif" font-style="normal" font-variant="normal" font-weight="400" font-stretch="normal" font-size="55" text-anchor="start" direction="ltr" writing-mode="lr-tb" unicode-bidi="normal" text-decoration="none" transform="matrix(1 0 0 1 2325.05 1426)">e</text><path d="M2203.95 592.5 2203.95 719.664 1490.5 719.664 1493.94 716.227 1493.94 817.036 1487.06 817.036 1487.06 712.789 2200.52 712.789 2197.08 716.227 2197.08 592.5ZM1504.25 812.453 1490.5 839.953 1476.75 812.453Z" fill="#156082" fill-rule="nonzero" fill-opacity="1"/><path d="M2200.5 713.062 2927.89 713.062 2927.89 817.488 2921.01 817.488 2921.01 716.5 2924.45 719.937 2200.5 719.937ZM2938.2 812.905 2924.45 840.405 2910.7 812.905Z" fill="#156082" fill-rule="nonzero" fill-opacity="1"/></g></g></svg>